<svg width="200" height="75" viewBox="0 0 200 75" fill="none" xmlns="http://www.w3.org/2000/svg">
<rect x="2.5" y="2.5" width="195" height="70" rx="2.5" fill="#333333" stroke="white" stroke-width="5" stroke-linejoin="round"/>
<path d="M38.9773 27.8182V33.2727H22.8182V27.8182H38.9773ZM26.517 54V25.9261C26.517 24.0284 26.8864 22.4545 27.625 21.2045C28.375 19.9545 29.3977 19.017 30.6932 18.392C31.9886 17.767 33.4602 17.4545 35.108 17.4545C36.2216 17.4545 37.2386 17.5398 38.1591 17.7102C39.0909 17.8807 39.7841 18.0341 40.2386 18.1705L38.9432 23.625C38.6591 23.5341 38.3068 23.4489 37.8864 23.3693C37.4773 23.2898 37.0568 23.25 36.625 23.25C35.5568 23.25 34.8125 23.5 34.392 24C33.9716 24.4886 33.7614 25.1761 33.7614 26.0625V54H26.517ZM49.9418 54.4943C48.2713 54.4943 46.7827 54.2045 45.4759 53.625C44.169 53.0341 43.1349 52.1648 42.3736 51.017C41.6236 49.858 41.2486 48.4148 41.2486 46.6875C41.2486 45.233 41.5156 44.0114 42.0497 43.0227C42.5838 42.0341 43.3111 41.2386 44.2315 40.6364C45.152 40.0341 46.1974 39.5795 47.3679 39.2727C48.5497 38.9659 49.7884 38.75 51.0838 38.625C52.6065 38.4659 53.8338 38.3182 54.7656 38.1818C55.6974 38.0341 56.3736 37.8182 56.794 37.5341C57.2145 37.25 57.4247 36.8295 57.4247 36.2727V36.1705C57.4247 35.0909 57.0838 34.2557 56.402 33.6648C55.7315 33.0739 54.777 32.7784 53.5384 32.7784C52.2315 32.7784 51.1918 33.0682 50.419 33.6477C49.6463 34.2159 49.1349 34.9318 48.8849 35.7955L42.169 35.25C42.5099 33.6591 43.1804 32.2841 44.1804 31.125C45.1804 29.9545 46.4702 29.0568 48.0497 28.4318C49.6406 27.7955 51.4815 27.4773 53.5724 27.4773C55.027 27.4773 56.419 27.6477 57.7486 27.9886C59.0895 28.3295 60.277 28.858 61.3111 29.5739C62.3565 30.2898 63.1804 31.2102 63.7827 32.3352C64.3849 33.4489 64.6861 34.7841 64.6861 36.3409V54H57.7997V50.3693H57.5952C57.1747 51.1875 56.6122 51.9091 55.9077 52.5341C55.2031 53.1477 54.3565 53.6307 53.3679 53.983C52.3793 54.3239 51.2372 54.4943 49.9418 54.4943ZM52.0213 49.483C53.0895 49.483 54.0327 49.2727 54.8509 48.8523C55.669 48.4205 56.3111 47.8409 56.777 47.1136C57.2429 46.3864 57.4759 45.5625 57.4759 44.642V41.8636C57.2486 42.0114 56.9361 42.1477 56.5384 42.2727C56.152 42.3864 55.7145 42.4943 55.2259 42.5966C54.7372 42.6875 54.2486 42.7727 53.7599 42.8523C53.2713 42.9205 52.8281 42.983 52.4304 43.0398C51.5781 43.1648 50.8338 43.3636 50.1974 43.6364C49.5611 43.9091 49.0668 44.2784 48.7145 44.7443C48.3622 45.1989 48.1861 45.767 48.1861 46.4489C48.1861 47.4375 48.544 48.1932 49.2599 48.7159C49.9872 49.2273 50.9077 49.483 52.0213 49.483ZM70.456 54V19.0909H77.7173V32.2159H77.9389C78.2571 31.5114 78.7173 30.7955 79.3196 30.0682C79.9332 29.3295 80.7287 28.7159 81.706 28.2273C82.6946 27.7273 83.9219 27.4773 85.3878 27.4773C87.2969 27.4773 89.0582 27.9773 90.6719 28.9773C92.2855 29.9659 93.5753 31.4602 94.5412 33.4602C95.5071 35.4489 95.9901 37.9432 95.9901 40.9432C95.9901 43.8636 95.5185 46.3295 94.5753 48.3409C93.6435 50.3409 92.3707 51.858 90.7571 52.892C89.1548 53.9148 87.3594 54.4261 85.3707 54.4261C83.9616 54.4261 82.7628 54.1932 81.7741 53.7273C80.7969 53.2614 79.9957 52.6761 79.3707 51.9716C78.7457 51.2557 78.2685 50.5341 77.9389 49.8068H77.6151V54H70.456ZM77.5639 40.9091C77.5639 42.4659 77.7798 43.8239 78.2116 44.983C78.6435 46.142 79.2685 47.0455 80.0866 47.6932C80.9048 48.3295 81.8991 48.6477 83.0696 48.6477C84.2514 48.6477 85.2514 48.3239 86.0696 47.6761C86.8878 47.017 87.5071 46.108 87.9276 44.9489C88.3594 43.7784 88.5753 42.4318 88.5753 40.9091C88.5753 39.3977 88.3651 38.0682 87.9446 36.9205C87.5241 35.7727 86.9048 34.875 86.0866 34.2273C85.2685 33.5795 84.2628 33.2557 83.0696 33.2557C81.8878 33.2557 80.8878 33.5682 80.0696 34.1932C79.2628 34.8182 78.6435 35.7045 78.2116 36.8523C77.7798 38 77.5639 39.3523 77.5639 40.9091Z" fill="white"/>
<path d="M100.977 48.5455V41.1818L115.023 19.0909H121.705V28.9091H117.886L110.318 40.9091V41.1818H131.045V48.5455H100.977ZM117.955 54V46.2955L118.159 43.0909V19.0909H127.023V54H117.955Z" fill="#125338"/>
<path d="M135.386 54V27.8182H144.318V32.7955H144.591C145.136 31.1591 146.068 29.8636 147.386 28.9091C148.705 27.9545 150.273 27.4773 152.091 27.4773C153.932 27.4773 155.517 27.9659 156.847 28.9432C158.176 29.9091 158.977 31.1932 159.25 32.7955H159.523C159.966 31.1932 160.909 29.9091 162.352 28.9432C163.795 27.9659 165.489 27.4773 167.432 27.4773C169.943 27.4773 171.977 28.2841 173.534 29.8977C175.102 31.5114 175.886 33.6591 175.886 36.3409V54H166.477V38.7273C166.477 37.5795 166.188 36.6818 165.608 36.0341C165.028 35.375 164.25 35.0455 163.273 35.0455C162.307 35.0455 161.54 35.375 160.972 36.0341C160.415 36.6818 160.136 37.5795 160.136 38.7273V54H151.136V38.7273C151.136 37.5795 150.847 36.6818 150.267 36.0341C149.688 35.375 148.909 35.0455 147.932 35.0455C147.284 35.0455 146.727 35.1932 146.261 35.4886C145.795 35.7841 145.432 36.2102 145.17 36.767C144.92 37.3125 144.795 37.9659 144.795 38.7273V54H135.386Z" fill="white"/>
</svg>
